<svg xmlns="http://www.w3.org/2000/svg" xmlns:xlink="http://www.w3.org/1999/xlink" width="14" height="14" viewBox="0 0 14 14"><defs><style>.a,.c{fill:#2f2c85;}.b{clip-path:url(#a);}.c{fill-rule:evenodd;}</style><clipPath id="a"><rect class="a" width="14" height="14" transform="translate(-0.125 -0.2)"/></clipPath></defs><g class="b" transform="translate(0.125 0.2)"><g transform="translate(0.233 0)"><path class="c" d="M6.031,13.285a1.971,1.971,0,1,1,0-1.313h5.694a1.642,1.642,0,0,0,0-3.284H4.5a2.955,2.955,0,1,1,0-5.911H6.527l-.849-.849L6.607,1,9.041,3.434,6.607,5.868l-.929-.929.849-.849H4.5a1.642,1.642,0,0,0,0,3.284h7.224a2.955,2.955,0,0,1,0,5.911ZM4.172,11.971a.657.657,0,1,0,.657.657A.657.657,0,0,0,4.172,11.971ZM12.053,1.463a1.97,1.97,0,1,1-1.97,1.97A1.97,1.97,0,0,1,12.053,1.463Zm0,1.313a.657.657,0,1,0,.657.657A.657.657,0,0,0,12.053,2.777Z" transform="translate(-1.545 -0.999)"/></g></g></svg>