<svg xmlns="http://www.w3.org/2000/svg" xmlns:xlink="http://www.w3.org/1999/xlink" width="24" height="24" viewBox="0 0 24 24"><defs><style>.a,.c{fill:#8d8d8d;}.a{stroke:#707070;}.b{clip-path:url(#a);}</style><clipPath id="a"><rect class="a" width="24" height="24" transform="translate(112 730)"/></clipPath></defs><g class="b" transform="translate(-112 -730)"><g transform="translate(112 730)"><path class="c" d="M24,24H9V21a5.812,5.812,0,0,1,.469-2.344,6.114,6.114,0,0,1,3.188-3.187A5.812,5.812,0,0,1,15,15h1.5a4.36,4.36,0,0,1-3.258-1.266A4.425,4.425,0,0,1,12,10.5a2.042,2.042,0,0,1,.047-.656,4.475,4.475,0,0,1,3.8-3.8A2.079,2.079,0,0,1,16.5,6a4.426,4.426,0,0,1,3.235,1.242A4.358,4.358,0,0,1,21,10.5,4.481,4.481,0,0,1,16.5,15H18a5.866,5.866,0,0,1,2.32.469,6.015,6.015,0,0,1,1.922,1.289,6.117,6.117,0,0,1,1.289,1.9A5.8,5.8,0,0,1,24,21ZM0,13.5v-3A1.444,1.444,0,0,1,1.5,9H2.813a3.425,3.425,0,0,1,.258-.7q.164-.328.3-.655L2.438,6.7a1.566,1.566,0,0,1-.422-1.078,1.4,1.4,0,0,1,.422-1.031L4.594,2.438a1.4,1.4,0,0,1,1.031-.422A1.461,1.461,0,0,1,6.7,2.438l.938.938q.328-.141.655-.3A3.462,3.462,0,0,1,9,2.813V1.5A1.444,1.444,0,0,1,10.5,0h3A1.444,1.444,0,0,1,15,1.5V2.813a3.425,3.425,0,0,1,.7.258q.328.164.656.3l.938-.937a1.458,1.458,0,0,1,1.078-.422,1.4,1.4,0,0,1,1.031.422l2.156,2.156a1.4,1.4,0,0,1,.422,1.031A1.566,1.566,0,0,1,21.563,6.7l-.281.234-.469-.562-.562-.516.235-.234-2.11-2.11L17.3,4.594q-.234-.047-.4-.07a2.9,2.9,0,0,0-.4-.023q-.281,0-.562.023t-.562.07a.271.271,0,0,0-.187-.047q-.187-.094-.3-.14l-.352-.141L13.5,3.89V1.5h-3V3.891l-1.031.375a.838.838,0,0,1-.235.07A.413.413,0,0,0,9,4.454l-.7.281L7.359,5.2,5.625,3.516,3.515,5.625,5.2,7.36,4.734,8.3q-.14.281-.257.585t-.212.586L3.891,10.5H1.5v3H3.891l.375,1.031a1.886,1.886,0,0,1,.094.235A1.84,1.84,0,0,0,4.453,15a.27.27,0,0,0,.094.188q.047.141.094.258t.094.211l.469.985L3.516,18.375l2.109,2.11L7.36,18.75l.422.235A8.007,8.007,0,0,0,7.5,20.719l-.8.844a1.458,1.458,0,0,1-1.078.422,1.4,1.4,0,0,1-1.031-.422L2.438,19.406a1.529,1.529,0,0,1,0-2.11l.938-.937q-.141-.328-.3-.656a3.489,3.489,0,0,1-.258-.7H1.5a1.421,1.421,0,0,1-1.078-.445A1.479,1.479,0,0,1,0,13.5Zm22.5,9V21A4.481,4.481,0,0,0,18,16.5H15A4.481,4.481,0,0,0,10.5,21v1.5Zm-9-12a2.983,2.983,0,0,0,5.11,2.109,3,3,0,0,0,.023-4.242,3,3,0,0,0-4.243.024A2.88,2.88,0,0,0,13.5,10.5Zm-6,1.735a4.994,4.994,0,0,1,.75-2.79,4.439,4.439,0,0,1,2.25-1.71l.375-.095.422-.093a5.189,5.189,0,0,0-.4.773,5.528,5.528,0,0,0-.258.774.213.213,0,0,1-.023.094.351.351,0,0,0-.024.141q-.047,0-.047.023t-.047.024L9.938,9.8A3.306,3.306,0,0,0,9.211,10.8a3.376,3.376,0,0,0-.187,1.57q.023.188.07.422A3.091,3.091,0,0,0,10.5,14.578l.188.094.188.094A.826.826,0,0,0,10.5,15q-.235.188-.445.375t-.446.422a1.241,1.241,0,0,1-.328-.235A1.827,1.827,0,0,0,9,15.328,1.632,1.632,0,0,1,8.672,15a4.917,4.917,0,0,1-.843-1.266,5.408,5.408,0,0,1-.328-1.5Z"/></g></g></svg>