<svg xmlns="http://www.w3.org/2000/svg" xmlns:xlink="http://www.w3.org/1999/xlink" width="15" height="14" viewBox="0 0 15 14"><defs><style>.a{fill:#2f2c85;}.b{clip-path:url(#a);}</style><clipPath id="a"><rect class="a" width="15" height="14" transform="translate(-0.031 0.438)"/></clipPath></defs><g class="b" transform="translate(0.031 -0.438)"><g transform="translate(0.556 0.696)"><path class="a" d="M10.568,8H7.729v2.129H5.6l3.548,3.548L12.7,10.129H10.568Z" transform="translate(-2.052 -2.323)"/><path class="a" d="M15.651,4.723,13.522,1.884a.71.71,0,0,0-.568-.284H4.439a.71.71,0,0,0-.568.284L1.742,4.723l.01.007a.69.69,0,0,0-.152.419v8.516a1.421,1.421,0,0,0,1.419,1.419H14.374a1.421,1.421,0,0,0,1.419-1.419V5.148a.691.691,0,0,0-.152-.419l.01-.007ZM4.793,3.019H12.6l1.064,1.419H3.729ZM3.019,13.664V5.858H14.374v7.806Z" transform="translate(-1.6 -1.6)"/></g></g></svg>