<svg xmlns="http://www.w3.org/2000/svg" xmlns:xlink="http://www.w3.org/1999/xlink" width="24" height="24.727" viewBox="0 0 24 24.727"><defs><style>.a,.d{fill:#8d8d8d;}.a{stroke:#707070;}.b{clip-path:url(#a);}.c{fill:none;stroke:#8d8d8d;stroke-linecap:round;stroke-miterlimit:10;stroke-width:2px;}</style><clipPath id="a"><rect class="a" width="24" height="24.727" transform="translate(0 -0.336)"/></clipPath></defs><g class="b" transform="translate(0 0.336)"><g transform="translate(1.95 2.474)"><path class="c" d="M7.316,21.829a1.122,1.122,0,0,0-.2-.737,2.114,2.114,0,0,0-.126-.189,9.913,9.913,0,0,1-1.637-5.458A10.182,10.182,0,0,1,15.668,5.357a10.276,10.276,0,0,1,10.109,8.03A9.873,9.873,0,0,1,26,15.453,10.117,10.117,0,0,1,15.846,25.621a12.146,12.146,0,0,1-2.8-.415c-.668-.187-1.336-.435-1.508-.5a1.545,1.545,0,0,0-.552-.1,1.523,1.523,0,0,0-.6.121L7.019,25.936A.79.79,0,0,1,6.788,26a.477.477,0,0,1-.475-.483.786.786,0,0,1,.03-.163Z" transform="translate(-5.357 -5.357)"/><circle class="d" cx="1.588" cy="1.588" r="1.588" transform="translate(3.969 8.732)"/><circle class="d" cx="1.588" cy="1.588" r="1.588" transform="translate(8.732 8.732)"/><circle class="d" cx="1.588" cy="1.588" r="1.588" transform="translate(13.495 8.732)"/></g></g></svg>