<svg xmlns="http://www.w3.org/2000/svg" xmlns:xlink="http://www.w3.org/1999/xlink" width="13" height="13" viewBox="0 0 13 13"><defs><style>.a,.c{fill:#555;}.a{stroke:#707070;}.b{clip-path:url(#a);}</style><clipPath id="a"><rect class="a" width="13" height="13" transform="translate(15 148)"/></clipPath></defs><g class="b" transform="translate(-15 -148)"><g transform="translate(15 147.07)"><path class="c" d="M12.948,7.846a1.056,1.056,0,0,0-1.335-.664L10.3,7.62,9.416,5.008l1.317-.438a1.053,1.053,0,1,0-.667-2l-1.317.438L8.293,1.648a1.055,1.055,0,0,0-2,.667l.456,1.364-2.71.905L3.581,3.221a1.055,1.055,0,0,0-2,.667l.456,1.364L.72,5.687A1.055,1.055,0,0,0,.052,7.019a1.088,1.088,0,0,0,.975.714c.2.029.348-.046,1.674-.487l.879,2.612L2.263,10.3A1.058,1.058,0,0,0,1.6,11.627a1.088,1.088,0,0,0,.975.714c.2.029.348-.046,1.674-.487L4.7,13.217a1.078,1.078,0,0,0,1.335.664A1.055,1.055,0,0,0,6.7,12.55l-.456-1.364,2.716-.908.456,1.364a1.078,1.078,0,0,0,1.335.664,1.055,1.055,0,0,0,.667-1.332l-.456-1.364,1.317-.438a1.046,1.046,0,0,0,.664-1.326ZM5.574,9.216,4.7,6.6,7.408,5.69l.879,2.617-2.713.908Z"/></g></g></svg>