<svg xmlns="http://www.w3.org/2000/svg" xmlns:xlink="http://www.w3.org/1999/xlink" width="13" height="13" viewBox="0 0 13 13"><defs><style>.a,.c{fill:#555;}.a{stroke:#707070;}.b{clip-path:url(#a);}.c{fill-rule:evenodd;}</style><clipPath id="a"><rect class="a" width="13" height="13" transform="translate(15 121)"/></clipPath></defs><g class="b" transform="translate(-15 -121)"><path class="c" d="M350.641,296.606a6.565,6.565,0,0,0-3.6-3.745,3.962,3.962,0,0,0,1.448-3.028,4.11,4.11,0,0,0-3.75-4.029,4.06,4.06,0,0,0-1,0,4.11,4.11,0,0,0-3.747,4.028,3.96,3.96,0,0,0,1.448,3.028,6.564,6.564,0,0,0-3.605,3.745,1.567,1.567,0,0,0,.22,1.474,1.725,1.725,0,0,0,1.387.683h9.6a1.723,1.723,0,0,0,1.385-.683,1.562,1.562,0,0,0,.215-1.474Zm-8.953-6.773a2.471,2.471,0,0,1,2.286-2.419,2.144,2.144,0,0,1,.527,0,2.443,2.443,0,1,1-2.813,2.419Zm-2.252,7.307a5.174,5.174,0,0,1,9.6,0h-9.6Z" transform="translate(-322.737 -164.768)"/></g></svg>