<svg xmlns="http://www.w3.org/2000/svg" xmlns:xlink="http://www.w3.org/1999/xlink" width="13" height="13" viewBox="0 0 13 13"><defs><style>.a,.c{fill:#555;}.a{stroke:#707070;}.b{clip-path:url(#a);}.c{fill-rule:evenodd;}</style><clipPath id="a"><rect class="a" width="13" height="13" transform="translate(15 176)"/></clipPath></defs><g class="b" transform="translate(-15 -176)"><path class="c" d="M480.529,294.649a4.058,4.058,0,0,0-1.786-3.365,3.247,3.247,0,1,0-4.708-4.464,3.247,3.247,0,1,0-4.708,4.464,4.059,4.059,0,0,0-1.786,3.364c0,.487.218,1.887,2.566,2.311.286.758,1.182,1.748,3.928,1.748s3.642-.989,3.928-1.748C480.311,296.536,480.529,295.136,480.529,294.649Zm-2.435-5.682a1.623,1.623,0,0,1-.834,1.408,3.235,3.235,0,0,0-1.779-2.679,1.593,1.593,0,0,1,.989-.353A1.628,1.628,0,0,1,478.094,288.967Zm-4.059,3.247a1.623,1.623,0,1,1,1.623-1.623A1.623,1.623,0,0,1,474.035,292.214Zm-2.435-4.87a1.593,1.593,0,0,1,.989.355,3.233,3.233,0,0,0-1.779,2.679,1.617,1.617,0,0,1,.79-3.033Zm-1.5,7.964c-.925-.238-.94-.659-.94-.659a2.425,2.425,0,0,1,2.093-2.4,3.259,3.259,0,0,0,.51.66,4.067,4.067,0,0,0-1.663,2.4Zm3.93,1.776c-2.435,0-2.435-.812-2.435-.812a2.435,2.435,0,1,1,4.87,0S476.47,297.084,474.035,297.084Zm3.93-1.776a4.068,4.068,0,0,0-1.663-2.4,3.257,3.257,0,0,0,.51-.66,2.425,2.425,0,0,1,2.093,2.4S478.891,295.07,477.966,295.308Z" transform="translate(-452.535 -109.707)"/></g></svg>