<svg xmlns="http://www.w3.org/2000/svg" width="15" height="14" viewBox="0 0 15 14">
  <g id="check-circle-07" transform="translate(0 -2)">
    <path id="Path_460" data-name="Path 460" d="M5.7,7.3A.99.99,0,0,0,4.3,8.7l2,2a.967.967,0,0,0,1.4,0l7-7a.967.967,0,0,0,0-1.4.967.967,0,0,0-1.4,0L7,8.6Z"/>
    <path id="Path_461" data-name="Path 461" d="M7,16a6.957,6.957,0,0,0,7-7,1,1,0,0,0-2,0,4.951,4.951,0,0,1-5,5A4.951,4.951,0,0,1,2,9,4.951,4.951,0,0,1,7,4a5.079,5.079,0,0,1,1.7.3A1.04,1.04,0,0,0,10,3.7a1.04,1.04,0,0,0-.6-1.3A6.722,6.722,0,0,0,7,2,7,7,0,0,0,7,16Z"/>
  </g>
</svg>
