<svg xmlns="http://www.w3.org/2000/svg" viewBox="0 0 135.32 83.9"><defs><style>.cls-1{fill:#2f2c85;}</style></defs><g id="Layer_2" data-name="Layer 2"><g id="Layer_1-2" data-name="Layer 1"><g id="Group_2624" data-name="Group 2624"><g id="check"><g id="Path_3575" data-name="Path 3575"><path class="cls-1" d="M32.1,83.9A6.56,6.56,0,0,1,27.45,82L1.92,56.45a6.57,6.57,0,0,1,9.29-9.28L32.27,68.23l.38-.35a6.57,6.57,0,1,1,8.92,9.64l-5,4.63A6.55,6.55,0,0,1,32.1,83.9Z"/></g><g id="Path_3576" data-name="Path 3576"><path class="cls-1" d="M60.73,56.12a6.57,6.57,0,0,1-4.65-11.2L99,1.92a6.57,6.57,0,0,1,9.3,9.28l-42.93,43A6.53,6.53,0,0,1,60.73,56.12Z"/></g></g><g id="check-2"><g id="Path_3575-2" data-name="Path 3575-2"><path class="cls-1" d="M64.92,83.9A6.57,6.57,0,0,1,60.28,82L34.75,56.45A6.57,6.57,0,1,1,44,47.17L64.92,68.05,124.11,8.87a6.57,6.57,0,1,1,9.28,9.29L69.57,82A6.59,6.59,0,0,1,64.92,83.9Z"/></g></g></g></g></g></svg>