<svg xmlns="http://www.w3.org/2000/svg" xmlns:xlink="http://www.w3.org/1999/xlink" width="12" height="12" viewBox="0 0 12 12"><defs><style>.a,.c{fill:#000000;}.a{stroke:#707070;}.b{clip-path:url(#a);}</style><clipPath id="a"><rect class="a" width="12" height="12" transform="translate(275 249)"/></clipPath></defs><g class="b" transform="translate(-275 -249)"><g transform="translate(275.062 248.988)"><path class="c" d="M6.767,12.012H0v-.679a2.649,2.649,0,0,1,.211-1.054A2.6,2.6,0,0,1,.8,9.425a2.9,2.9,0,0,1,.855-.574A2.546,2.546,0,0,1,2.693,8.64h.679a1.925,1.925,0,0,1-1.429-.6A1.982,1.982,0,0,1,1.358,6.6a1.98,1.98,0,0,1,.586-1.428,2.161,2.161,0,0,1,.644-.445,1.884,1.884,0,0,1,.785-.164,1.963,1.963,0,0,1,1.44.6,2.036,2.036,0,0,1,0,2.88,1.965,1.965,0,0,1-1.44.6h.679A2.647,2.647,0,0,1,5.1,8.851a2.836,2.836,0,0,1,.866.574,2.632,2.632,0,0,1,.8,1.908ZM5.385,8.219a3.54,3.54,0,0,1,.89-.679,3.079,3.079,0,0,1,1.148-.258h.351A1.606,1.606,0,0,1,6.088,5.6a1.622,1.622,0,0,1,.48-1.218,1.659,1.659,0,0,1,1.206-.468A1.679,1.679,0,0,1,9.459,5.6,1.679,1.679,0,0,1,7.774,7.282H8.1a2.648,2.648,0,0,1,1.054.211,2.735,2.735,0,0,1,.866.586,2.788,2.788,0,0,1,.586.855,2.551,2.551,0,0,1,.21,1.042v.679H7.423V9.975h2.716a1.884,1.884,0,0,0-.164-.785,2.151,2.151,0,0,0-.445-.643,2.01,2.01,0,0,0-.644-.433A1.988,1.988,0,0,0,8.1,7.961H7.422a1.841,1.841,0,0,0-1.452.609,3.25,3.25,0,0,0-.281-.2,1.408,1.408,0,0,0-.3-.152ZM4.847,2.061l.281-.328A3.72,3.72,0,0,1,6.158.855,3.545,3.545,0,0,1,7.47.445,3.62,3.62,0,0,1,8.781.562,2.847,2.847,0,0,1,10,1.194l.89.726L10.748.492a.655.655,0,0,1,.094-.328.354.354,0,0,1,.281-.14.325.325,0,0,1,.328.094A.535.535,0,0,1,11.614.4l.258,2.459a.446.446,0,0,1-.094.328.315.315,0,0,1-.281.14l-2.435.281A.582.582,0,0,1,8.723,3.5a.338.338,0,0,1-.152-.293.363.363,0,0,1,.094-.328.355.355,0,0,1,.281-.14L10.35,2.6l-.89-.726a2.22,2.22,0,0,0-.913-.468A1.717,1.717,0,0,0,8.032,1.3a3.528,3.528,0,0,0-.492.011,2.277,2.277,0,0,0-.949.316,3.186,3.186,0,0,0-.785.643L5.526,2.6a.447.447,0,0,1-.281.164.325.325,0,0,1-.328-.094.532.532,0,0,1-.164-.281.456.456,0,0,1,.094-.328Zm1.241,9.272a1.914,1.914,0,0,0-.164-.773A2.107,2.107,0,0,0,5.479,9.9a2.175,2.175,0,0,0-.644-.445A1.875,1.875,0,0,0,4.051,9.3H2.693a1.888,1.888,0,0,0-.785.164,2.147,2.147,0,0,0-.644.445,1.979,1.979,0,0,0-.585,1.429H6.088ZM2.037,6.6a1.339,1.339,0,0,0,.375.971,1.28,1.28,0,0,0,.96.387,1.476,1.476,0,0,0,.96-.4,1.478,1.478,0,0,0,.4-.961,1.475,1.475,0,0,0-.4-.96,1.476,1.476,0,0,0-.96-.4,1.28,1.28,0,0,0-.96.386,1.339,1.339,0,0,0-.375.972ZM6.767,5.6a1.007,1.007,0,0,0,2.014,0,1.019,1.019,0,0,0-.293-.714.94.94,0,0,0-.714-.316.961.961,0,0,0-.726.293,1.024,1.024,0,0,0-.281.738Z"/></g></g></svg>