<svg xmlns="http://www.w3.org/2000/svg" width="24" height="24" viewBox="0 0 24 24"><g fill="none" class="nc-icon-wrapper"><path fill-rule="evenodd" clip-rule="evenodd" d="M4.707 3.293a1 1 0 0 0-1.414 1.414l2.424 2.424c-1.43 1.076-2.678 2.554-3.611 4.422a1 1 0 0 0 0 .894C4.264 16.764 8.096 19 12 19c1.555 0 3.1-.355 4.53-1.055l2.763 2.762a1 1 0 0 0 1.414-1.414l-16-16zm10.307 13.135l-1.72-1.72a3 3 0 0 1-4.001-4.001L7.147 8.563c-1.16.816-2.2 1.958-3.018 3.437 1.868 3.38 4.901 5 7.87 5a8.265 8.265 0 0 0 3.014-.572z" fill="#000000"/><path d="M18.552 13.896c.483-.556.926-1.187 1.318-1.896C18.002 8.62 14.97 7 12 7c-.112 0-.224.002-.336.007L9.879 5.223A10.215 10.215 0 0 1 12 5c3.903 0 7.736 2.236 9.894 6.553a1 1 0 0 1 0 .894 13.106 13.106 0 0 1-1.925 2.865l-1.417-1.416z" fill="#000000"/></g></svg>