<svg xmlns="http://www.w3.org/2000/svg" width="18.702" height="17.932" viewBox="0 0 18.702 17.932">
  <g id="star-outline" transform="translate(-2.648 -3.034)">
    <g id="Group_2480" data-name="Group 2480">
      <path id="Path_3479" data-name="Path 3479" d="M16.855,20.966a1.506,1.506,0,0,1-.646-.146l-.1-.051L12,18.426,7.891,20.77l-.106.053a1.524,1.524,0,0,1-1.521-.143,1.505,1.505,0,0,1-.586-1.509l.957-4.642-1.6-1.457L3.138,11.347l-.078-.082a1.493,1.493,0,0,1,.82-2.5l.1-.018,4.7-.521,1.946-4.31.06-.11a1.5,1.5,0,0,1,2.618,0l.06.112,1.948,4.312,4.7.521.1.017a1.5,1.5,0,0,1,.818,2.506l-.078.078-3.5,3.184.957,4.632a1.514,1.514,0,0,1-.59,1.519,1.488,1.488,0,0,1-.874.281ZM8.706,14.4c-.039.182-.466,2.246-.845,4.082L11.5,16.407a1,1,0,0,1,.99,0l3.643,2.075-.849-4.1a1,1,0,0,1,.308-.942l3.1-2.822-4.168-.461a1,1,0,0,1-.8-.584L12,5.748,10.273,9.569a1.007,1.007,0,0,1-.8.584L5.3,10.614l3.1,2.822a1,1,0,0,1,.3.966Z"/>
    </g>
  </g>
</svg>
