<svg class="wbIcons" xmlns="http://www.w3.org/2000/svg" xmlns:xlink="http://www.w3.org/1999/xlink" width="17" height="17" viewBox="0 0 17 17"><defs><style>.a{fill:#2f2c85;}.b{clip-path:url(#a);}</style><clipPath id="a"><rect class="a" width="17" height="17" transform="translate(-1.6 -1.2)"/></clipPath></defs><g class="b" transform="translate(1.6 1.2)"><g transform="translate(0 0.952)"><path class="a" d="M3.422,15.711a.755.755,0,0,1-.755-.755V14.2A7.54,7.54,0,0,1,8.71,6.8V5.512a1.5,1.5,0,0,1,.442-1.068,1.547,1.547,0,0,1,2.137,0L16.04,9.13a.752.752,0,0,1,0,1.076l-4.754,4.689a1.549,1.549,0,0,1-2.133,0,1.5,1.5,0,0,1-.443-1.068V12.737a5.551,5.551,0,0,0-4.657,2.632.755.755,0,0,1-.632.342Zm6.044-4.525.755-.008v2.643l4.213-4.155L10.221,5.515V8.157a6.22,6.22,0,0,0-.673.039A6.03,6.03,0,0,0,4.341,12.79,8.027,8.027,0,0,1,9.466,11.187Z" transform="translate(-2.666 -4.015)"/></g></g></svg> 