<svg xmlns="http://www.w3.org/2000/svg" xmlns:xlink="http://www.w3.org/1999/xlink" width="14" height="14" viewBox="0 0 14 14"><defs><style>.a{fill:#2f2c85;}.b{clip-path:url(#a);}</style><clipPath id="a"><rect class="a" width="14" height="14" transform="translate(-0.3 -0.3)"/></clipPath></defs><g class="b" transform="translate(0.3 0.3)"><g transform="translate(0 0)"><path class="a" d="M8.641,12.353l-.547.687a.429.429,0,0,0,.335.694.413.413,0,0,0,.086-.009A5.783,5.783,0,0,0,13.15,8.069V4.293h1.287a.429.429,0,0,0,.323-.712l-3-3.433a.443.443,0,0,0-.646,0l-3,3.433a.429.429,0,0,0,.324.712H9.717V9.286a4.923,4.923,0,0,1-1.075,3.067Zm1.5-8.919H9.373l2.06-2.353,2.06,2.353h-.772a.429.429,0,0,0-.429.429V8.069a4.927,4.927,0,0,1-2.646,4.355,5.791,5.791,0,0,0,.93-3.138V3.863A.429.429,0,0,0,10.146,3.434Z" transform="translate(-1.134 -0.002)"/><path class="a" d="M6.225,1.381,6.772.694A.429.429,0,0,0,6.352.009,5.783,5.783,0,0,0,1.717,5.665V9.441H.429a.429.429,0,0,0-.323.712l3,3.433a.429.429,0,0,0,.646,0l3-3.433a.429.429,0,0,0-.324-.712H5.15V4.448A4.923,4.923,0,0,1,6.225,1.381ZM4.721,10.3h.772l-2.06,2.353L1.373,10.3h.772a.429.429,0,0,0,.429-.429V5.665A4.927,4.927,0,0,1,5.221,1.309a5.791,5.791,0,0,0-.93,3.139V9.871A.429.429,0,0,0,4.721,10.3Z" transform="translate(-0.001 -0.001)"/></g></g></svg>