<svg xmlns="http://www.w3.org/2000/svg" viewBox="0 0 116.67 67.92"><defs><style>.cls-1{fill:#2f2c85;}.cls-2{fill:#fff;opacity:0.8;}</style></defs><g id="Layer_2" data-name="Layer 2"><g id="Layer_1-2" data-name="Layer 1"><g id="Group_2625" data-name="Group 2625"><g id="Ellipse_187" data-name="Ellipse 187"><circle class="cls-1" cx="59.65" cy="46.04" r="21.89"/></g><path class="cls-2" d="M66,25.21A10.9,10.9,0,1,0,80.48,39.65,21.81,21.81,0,0,0,66,25.21Z"/><g id="Path_3579" data-name="Path 3579"><path class="cls-1" d="M110.11,46.45a6.57,6.57,0,0,1-6-3.88A50,50,0,0,0,59.51,13.14c-19.95-.67-38.58,11.17-47,29.47A6.57,6.57,0,1,1,.6,37.14,64.15,64.15,0,0,1,59.75,0a63.17,63.17,0,0,1,56.34,37.19,6.57,6.57,0,0,1-6,9.26Z"/></g></g></g></g></svg>