<svg xmlns="http://www.w3.org/2000/svg" width="10.352" height="11.889" viewBox="0 0 10.352 11.889">
  <g id="skip-forward" transform="translate(-6.55 -5.999)">
    <g id="Layer_2" data-name="Layer 2" transform="translate(6.55 5.999)">
      <path id="skip-forward-2" data-name="skip-forward" d="M15.912,6a.991.991,0,0,0-.991.991v3.784l-.139-.149L9.73,6.456A2.08,2.08,0,0,0,7.541,6.2,1.744,1.744,0,0,0,6.55,7.773v8.341a1.744,1.744,0,0,0,.991,1.575,2.209,2.209,0,0,0,.9.2,2.041,2.041,0,0,0,1.288-.456l5.052-4.171.139-.149V16.9a.991.991,0,0,0,1.981,0V6.991A.991.991,0,0,0,15.912,6Z" transform="translate(-6.55 -5.999)"/>
    </g>
  </g>
</svg>
