<svg xmlns="http://www.w3.org/2000/svg" width="13.528" height="12.443" viewBox="0 0 13.528 12.443"><defs><style>.a{fill:#2f2c85;stroke:#2f2c85;stroke-width:0.5px;}</style></defs><g transform="translate(0.25 -0.752)"><path class="a" d="M12.183,2.788,10.555,1.16a.561.561,0,0,0-.771,0L8.156,2.788a.545.545,0,0,0,.771.771l.7-.706V9.688a.543.543,0,0,0,1.086,0V2.853l.7.706a.545.545,0,1,0,.771-.771Z" transform="translate(-3.655)"/><path class="a" d="M11.4,18.428H1.629A1.629,1.629,0,0,1,0,16.8V13.543a.543.543,0,1,1,1.086,0V16.8a.543.543,0,0,0,.543.543H11.4a.543.543,0,0,0,.543-.543V13.543a.543.543,0,1,1,1.086,0V16.8A1.629,1.629,0,0,1,11.4,18.428Z" transform="translate(0 -5.484)"/></g></svg>