<svg xmlns="http://www.w3.org/2000/svg" xmlns:xlink="http://www.w3.org/1999/xlink" width="24" height="27.2" viewBox="0 0 24 27.2"><defs><style>.a,.c{fill:#8d8d8d;}.a{stroke:#8d8d8d;}.b{clip-path:url(#a);}</style><clipPath id="a"><rect class="a" width="24" height="27.2" transform="translate(3 6.344)"/></clipPath></defs><g class="b" transform="translate(-3 -6.344)"><g transform="translate(2.955 6.439)"><path class="c" d="M17.384,9.262a9.607,9.607,0,0,0-5.293-1.552,9.609,9.609,0,0,0-3.809.73,8.72,8.72,0,0,0-2.943,2.03,9.194,9.194,0,0,0-1.917,3.1,10.912,10.912,0,0,0-.685,3.9,8.884,8.884,0,0,0,.137,1.552,8.834,8.834,0,0,1,.137,1.552,1.351,1.351,0,0,1-.388.958,1.24,1.24,0,0,1-.935.41,1.128,1.128,0,0,1-.935-.433,2.79,2.79,0,0,1-.5-1.073,6.476,6.476,0,0,1-.183-1.346q-.024-.706-.023-1.3A14.32,14.32,0,0,1,.981,12.5,11.627,11.627,0,0,1,3.558,8.487,11.454,11.454,0,0,1,7.392,5.954a12.37,12.37,0,0,1,4.7-.89,12.51,12.51,0,0,1,4.517.822,11.686,11.686,0,0,1,3.741,2.281L17.977,9.673Zm5.8,3.148a13.426,13.426,0,0,1,.867,4.973v.229q0,.548-.023,1.3a6.892,6.892,0,0,1-.183,1.414,3.276,3.276,0,0,1-.479,1.118,1.047,1.047,0,0,1-.913.456,1.372,1.372,0,0,1-.981-.365,1.208,1.208,0,0,1-.388-.913,7.886,7.886,0,0,1,.16-1.6,7.663,7.663,0,0,0,.16-1.552,10.909,10.909,0,0,0-1.141-5.11l1.6-2.463a10.493,10.493,0,0,1,1.324,2.509ZM10.266,16.2a5.868,5.868,0,0,1,.685-.5l5.019-3.422,5.247-3.422L15.33,17.84l-.913,1.324-.5.638a2.5,2.5,0,0,1-1.825.776,2.535,2.535,0,0,1-1.825-.753,2.424,2.424,0,0,1-.775-1.8,2.5,2.5,0,0,1,.776-1.825Zm1.825,3.012A1.2,1.2,0,0,0,13,18.821a1.261,1.261,0,0,0,.365-.89,1.248,1.248,0,0,0-1.278-1.278,1.263,1.263,0,0,0-.89.365,1.2,1.2,0,0,0-.388.913,1.328,1.328,0,0,0,1.278,1.278Z"/></g></g></svg>