<svg xmlns="http://www.w3.org/2000/svg" width="16.773" height="19.254" viewBox="0 0 16.773 19.254">
  <g id="reset" transform="translate(0.289 0.297)">
    <path id="Path_461" data-name="Path 461" d="M4.68,12.857,7.057,10.48,4.68,8.177l1.17-1.17,2.377,2.34,2.3-2.34,1.17,1.17-2.377,2.3L11.7,12.857l-1.17,1.17-2.3-2.377L5.85,14.027Zm-3.51-1.17a6.878,6.878,0,0,0,.841,2.34,7.465,7.465,0,0,0,1.517,1.846A6.615,6.615,0,0,0,5.594,17.1a7.028,7.028,0,0,0,2.486.439,6.753,6.753,0,0,0,2.724-.549,7.111,7.111,0,0,0,2.212-1.5,7.038,7.038,0,0,0,1.5-2.231,7.13,7.13,0,0,0,0-5.484,7.014,7.014,0,0,0-1.5-2.23,7.146,7.146,0,0,0-2.212-1.5A6.708,6.708,0,0,0,8.08,3.5H2.889L4.351,4.85a.575.575,0,0,1,0,.841.533.533,0,0,1-.8,0L1.463,3.716a1.238,1.238,0,0,1,0-1.682L3.583.169a.5.5,0,0,1,.8,0,.575.575,0,0,1,0,.841l-1.5,1.316q1.536.037,2.743.037H8.409a8.114,8.114,0,0,1,3.071.731A8.21,8.21,0,0,1,13.967,4.85a8.129,8.129,0,0,1,2.267,5.667,7.976,7.976,0,0,1-.64,3.2,8.258,8.258,0,0,1-4.351,4.351,7.886,7.886,0,0,1-3.163.64,7.843,7.843,0,0,1-2.943-.549,8.627,8.627,0,0,1-2.45-1.48A7.809,7.809,0,0,1,.914,14.466,8.309,8.309,0,0,1,0,11.687Z" transform="translate(0 0)" stroke="#000" stroke-width="0.5"/>
  </g>
</svg>
